<svg xmlns="http://www.w3.org/2000/svg" xmlns:xlink="http://www.w3.org/1999/xlink" width="1000.003" height="666.666" fill-rule="evenodd" clip-rule="evenodd" image-rendering="optimizeQuality" shape-rendering="geometricPrecision" text-rendering="geometricPrecision" version="1.1" viewBox="0 0 10417 6944" xml:space="preserve"><defs><style type="text/css">.str0{stroke:#fff;stroke-width:16.937;stroke-linecap:round;stroke-linejoin:round;stroke-opacity:.45098}.fil11{fill:none;fill-rule:nonzero}.fil6{fill:#b71c1c}.fil10,.fil6,.fil7,.fil8{fill-rule:nonzero}.fil8{fill:#ef3434}.fil7{fill:#f49595}.fil10{fill:#f44336}.fil0,.fil5,.fil9{fill-rule:nonzero}.fil9{fill:#ffaeae}.fil0{fill:transparent}.fil5{fill:#000;fill-opacity:.25098}.fil1,.fil2,.fil3,.fil4{fill:#ffcdd2;fill-rule:nonzero}</style></defs><g id="BACKGROUND"><metadata id="CorelCorpID_0Corel-Layer"/><polygon points="10417 6944 0 6944 0 0 10417 0" class="fil0"/></g><g id="OBJECTS"><metadata id="CorelCorpID_1Corel-Layer"/><g id="_258403248"><g><path d="M6434 5770c-31,3 -62,5 -93,7 -22,1 -44,2 -67,3 -24,1 -48,1 -72,1 -9,0 -18,0 -27,0 -4,0 -8,0 -12,0 -9,0 -17,0 -26,0 -50,-1 -98,-2 -145,-4 -1464,-57 -1740,-692 -2731,-1003 -945,-296 -2247,-2225 -1599,-3296 58,-95 130,-184 220,-263 996,-885 2355,597 2841,675 487,78 2089,-1116 3211,-519 339,180 566,656 641,1231 166,1267 -404,3018 -2141,3169z" class="fil1"/><path d="M4697 5898c-285,277 -532,-151 -424,-290 108,-138 563,154 424,290z" class="fil2"/><path d="M4735 6191c-7,13 -14,23 -22,32 -71,81 -174,6 -192,-59 -4,-13 -4,-26 0,-37 26,-72 254,-11 214,64z" class="fil3"/><path d="M4669 1069c349,-55 528,467 187,476 -340,9 -476,-167 -444,-308 32,-141 257,-167 257,-167z" class="fil4"/><path d="M6434 5770c-31,3 -62,5 -93,7 -22,1 -44,2 -67,3 -24,1 -48,1 -72,1 -9,0 -18,0 -27,0 -4,0 -8,0 -12,0 -9,0 -17,0 -26,0 -50,-1 -98,-2 -145,-4 -1464,-57 -1740,-692 -2731,-1003 -945,-296 -2247,-2225 -1599,-3296 -53,322 -131,1253 525,2031 807,958 2719,1570 3039,1580 320,9 -325,-482 1083,-863 1408,-381 724,355 897,636 173,280 913,-554 1036,-1516 45,-355 167,-607 334,-743 166,1267 -404,3018 -2141,3169z" class="fil5"/></g><g><path d="M2910 5116c-19,120 -64,313 -103,459 -25,91 -47,165 -60,191 -3,6 -6,10 -8,11 -20,7 -25,2 -30,-21l0 0c-1,-6 -3,-14 -5,-22 -1,-7 -3,-15 -5,-24 -13,-59 -24,-401 -25,-450 0,-4 0,-6 0,-6 0,0 -90,-55 -155,-106 -24,-19 -45,-37 -57,-52 -6,-8 -12,-20 -16,-34 -25,-82 -16,-244 33,-259 0,0 307,46 435,202 8,9 5,51 -5,111z" class="fil6"/><path d="M2910 5116c-19,120 -64,313 -103,459 -1,-69 -7,-186 -33,-238 -18,-35 -60,-61 -100,-78 0,-4 0,-6 0,-6 0,0 -90,-55 -155,-106l-73 -86c-25,-82 -16,-244 33,-259 0,0 307,46 435,202 8,9 5,51 -5,111z" class="fil5"/><path d="M2992 5469c-5,16 -11,24 -18,21 -6,-2 -13,-10 -20,-22l0 0c-48,-81 -118,-353 -118,-353 0,0 -209,108 -350,85 -103,-17 -147,-125 -163,-183 3,0 6,0 9,-1 32,-5 108,-92 154,-156 301,-12 516,50 533,103 15,46 5,412 -27,505z" class="fil6"/><path d="M2189 4250c0,0 -6,-86 -69,-89 -77,-40 -163,11 -185,92 -22,81 111,239 120,314 9,75 -27,167 -54,242 -28,75 25,173 134,173 109,0 139,-170 117,-238 -22,-68 -82,-270 -82,-270l19 -225z" class="fil6"/><path d="M2265 4262l96 -156c0,0 18,-243 26,-291 9,-54 -5,-107 17,-135 0,0 30,317 32,330 2,13 12,62 0,112 -12,50 -97,262 -97,262 0,0 -57,-101 -75,-122z" class="fil7"/><path d="M2524 4797c0,8 -16,33 -38,64 -46,64 -122,150 -154,156 -3,1 -6,1 -9,1 -38,1 -47,-39 -56,-92 0,-2 -1,-4 -1,-6 -10,-61 -99,-232 -115,-251 -2,-3 -5,-5 -9,-6l0 0c-20,-9 -56,-5 -71,-56 -14,-48 9,-115 31,-163 6,-13 12,-25 17,-34 9,-17 34,-46 61,-74 41,-42 86,-83 86,-83 0,0 69,95 89,170 20,75 53,195 83,243 30,49 86,108 86,132z" class="fil8"/><path d="M2185 4437c-37,19 -67,12 -83,6 6,-13 12,-25 17,-34 9,-17 34,-46 61,-74 2,0 4,1 6,2 63,23 54,73 -1,100z" class="fil5"/><path d="M2632 4013c0,0 -102,62 -112,78 -11,16 -41,243 -61,267 -19,24 -103,148 -136,182 -35,-30 -53,-131 -45,-144 8,-13 94,-75 94,-75 0,0 80,-237 105,-265 25,-28 34,-40 43,-43 10,-3 112,0 112,0z" class="fil9"/><g><path d="M2104 4364c0,0 25,40 35,44 10,4 54,-8 55,-22 1,-14 -28,-54 -28,-58l-62 36z" class="fil7"/><path d="M2185 4362c-2,2 -5,4 -7,5 -17,7 -42,10 -67,8 -9,0 -17,-1 -25,-3 -20,-3 -35,-9 -39,-15 -8,-17 64,-75 88,-163 23,15 40,39 50,64 17,41 17,87 -1,104z" class="fil9"/></g><path d="M2839 5978c0,19 -167,-69 -165,-89 3,-20 35,-132 35,-132l0 0c5,23 10,28 30,21 2,-1 4,-4 8,-11 0,0 92,192 92,211z" class="fil8"/><path d="M3082 5714c-17,10 -133,-94 -140,-111 -7,-17 12,-135 12,-135l0 0c7,12 14,20 20,22 7,2 13,-6 18,-21 21,47 105,236 90,245z" class="fil8"/><path d="M2304 4734c4,52 -20,149 -38,191 0,-2 -1,-4 -1,-6 -10,-61 -99,-232 -115,-251 -2,-3 -5,-5 -9,-6 73,4 181,-123 181,-123 40,52 -24,116 -18,195z" class="fil5"/><path d="M2186 4258c0,0 -19,-20 -37,-35 -4,47 -79,112 -63,150 -20,-3 -35,-9 -39,-15 -8,-17 64,-75 88,-163 23,15 40,39 50,64z" class="fil5"/></g><g><path d="M3895 3598l200 0c10,0 18,8 18,18l0 379c0,10 -8,18 -18,18l-200 0c-10,0 -18,8 -18,18l0 458c0,10 -8,18 -18,18l-502 0c-10,0 -18,-8 -18,-18l0 -458c0,-10 -8,-18 -18,-18l-865 0c-9,0 -17,-7 -18,-16l-30 -307c0,-4 1,-8 3,-11l929 -1494 0 -5 521 0c10,0 18,8 18,18l0 1381c0,10 8,18 18,18zm-944 0l0 0 369 0c10,0 18,-8 18,-18l0 -634c0,-18 -24,-25 -34,-10l0 0 -369 634c-7,12 2,27 16,27z" class="fil10"/><path d="M5966 3556c0,314 -71,557 -212,727 -141,170 -340,256 -597,256 -259,0 -459,-86 -601,-257 -142,-172 -213,-413 -213,-726l0 -425c0,-314 71,-557 212,-727 141,-170 341,-256 599,-256 258,0 458,86 599,257 142,172 213,414 213,727l0 424zm-539 -494l0 0c0,-167 -22,-292 -66,-375 -44,-83 -113,-124 -208,-124 -93,0 -160,38 -202,115 -42,77 -65,193 -68,348l0 595c0,174 22,301 66,381 44,80 113,121 208,121 92,0 159,-39 203,-117 44,-78 66,-201 67,-368l0 -575z" class="fil10"/><path d="M7687 3598l200 0c10,0 18,8 18,18l0 379c0,10 -8,18 -18,18l-200 0c-10,0 -18,8 -18,18l0 458c0,10 -8,18 -18,18l-502 0c-10,0 -18,-8 -18,-18l0 -458c0,-10 -8,-18 -18,-18l-865 0c-9,0 -17,-7 -18,-16l-30 -307c0,-4 1,-8 3,-11l929 -1494 0 -5 521 0c10,0 18,8 18,18l0 1381c0,10 8,18 18,18zm-944 0l0 0 369 0c10,0 18,-8 18,-18l0 -634c0,-18 -24,-25 -34,-10l-369 634c-7,12 2,27 16,27z" class="fil10"/></g><g><path d="M7526 5841c0,0 -58,24 -93,110 -35,86 -40,208 -24,224 16,16 133,-110 143,-185 11,-74 -3,-132 -3,-132l-23 -18z" class="fil8"/><path d="M8105 4054c-43,36 -59,98 -59,98 0,0 -103,-67 -111,-80 -9,-13 -36,-252 -43,-311 -8,-60 14,-114 32,-94 18,19 12,91 11,95 -1,4 63,214 70,222 8,8 101,70 101,70z" class="fil9"/><path d="M8802 4390c-1,2 -1,3 -2,5 -185,55 -226,55 -226,55 0,0 -13,23 -30,57 -24,46 -58,112 -82,165 -16,35 -27,63 -29,77 -2,14 -17,23 -39,26 -55,9 -152,-12 -203,-63 -47,-47 -65,-89 -69,-120 -2,-16 0,-30 3,-41 3,-10 11,-23 22,-40 20,-32 47,-82 55,-168 2,-17 3,-36 3,-56 -157,-107 -160,-134 -160,-134 0,0 16,-63 59,-98 0,0 195,136 213,143 5,2 23,8 45,16 36,12 85,29 121,42 18,6 33,12 41,15 33,13 254,1 265,0 0,0 0,0 0,0 10,0 21,87 11,121z" class="fil8"/><path d="M8485 4254c-13,27 -37,58 -76,47 -49,-14 -49,-64 -45,-89 36,12 85,29 121,42z" class="fil5"/><path d="M9245 3993c-30,71 -148,147 -148,147 0,0 -140,184 -173,209 -19,14 -77,30 -122,40 10,-34 -1,-121 -11,-121 4,-1 89,-12 104,-19 16,-7 140,-125 143,-130 3,-4 39,-111 46,-115 7,-4 17,40 17,40 0,0 97,-50 144,-52z" class="fil9"/><path d="M8512 4124c0,8 -2,15 -6,22 -6,10 -11,18 -17,26 0,0 0,0 0,0 -10,13 -20,22 -31,30 -30,23 -59,25 -67,19 -2,-1 -3,-2 -5,-4 -39,-30 -40,-86 -37,-120 0,-5 1,-10 2,-14 1,-8 2,-13 2,-13 20,22 104,-6 125,-2 16,3 36,29 35,55z" class="fil9"/><path d="M8457 4202c-4,26 4,56 -16,69 -24,16 -44,3 -54,-9 -6,-8 -4,-30 -2,-45 2,1 3,2 5,4 8,6 37,3 67,-19z" class="fil7"/><path d="M8554 4123c-11,23 -42,36 -66,49 6,-8 12,-16 17,-26 18,-32 -8,-74 -29,-77 -21,-4 -104,24 -125,2 0,0 -1,5 -2,13 -36,-11 -105,-42 -108,-106 -4,-86 55,-111 123,-92 69,19 97,92 97,92 0,0 68,-39 113,2 45,41 -23,94 -23,94 0,0 21,12 3,48z" class="fil6"/><path d="M8395 4775c-15,38 -41,96 -80,162 -61,105 -623,860 -762,971 -3,2 -6,3 -10,3 -19,0 -45,-28 -45,-33 -4,-51 540,-994 548,-1008l0 0 -369 85c0,0 -127,244 -215,359 -8,10 -15,19 -22,27 -20,23 -37,35 -47,31 -2,-1 -2,-7 -1,-18 10,-99 132,-576 177,-642 38,-56 364,-90 507,-112 20,-3 36,-6 47,-8 4,32 21,73 69,120 51,51 148,72 203,63z" class="fil6"/><path d="M7478 5440c-23,32 -258,156 -238,86 20,-71 151,-171 151,-171l1 0c-1,11 -1,17 1,18 10,5 27,-8 47,-31 12,35 58,71 38,99z" class="fil8"/><path d="M8395 4775c-15,38 -41,96 -80,162 -61,105 -623,860 -762,971 -3,2 -6,3 -10,3 156,-258 680,-1014 627,-1134 -35,-79 -71,-139 -94,-177 20,-3 36,-6 47,-8 4,32 21,73 69,120 51,51 148,72 203,63z" class="fil5"/><path d="M8046 4870l-369 85c0,0 -127,244 -215,359 61,-143 165,-382 184,-405 28,-32 322,-160 357,-132 35,28 42,93 42,93z" class="fil5"/><path d="M8544 4508c-24,46 -58,112 -82,165 -90,-1 -216,-31 -315,-161 20,-32 47,-82 55,-168 59,54 186,151 341,165z" class="fil6"/><path d="M8512 4124c-2,-12 -7,-23 -16,-30 -25,-19 -87,13 -129,8 -8,-1 -14,-2 -19,-3 0,-5 1,-10 2,-14 1,-8 2,-13 2,-13 20,22 104,-6 125,-2 16,3 36,29 35,55z" class="fil5"/></g><g><g><path d="M1663 2965c0,0 697,-528 -373,-1157 -197,411 317,806 373,1157z" class="fil6"/><path d="M1290 1808c0,0 47,208 246,431 199,223 308,366 126,727" class="fil11 str0"/><polyline points="1268 2155 1486 2178 1568 1999" class="fil11 str0"/><polyline points="1392 2427 1660 2386 1725 2152" class="fil11 str0"/><polyline points="1518 2634 1754 2617 1850 2353" class="fil11 str0"/></g><g><path d="M1916 3508c0,0 501,-936 -999,-1088 -9,554 759,729 999,1088z" class="fil8"/><path d="M917 2420c0,0 158,205 491,350 333,145 526,247 508,738" class="fil11 str0"/><polyline points="1069 2815 1321 2729 1321 2490" class="fil11 str0"/><polyline points="1344 3052 1619 2871 1572 2579" class="fil11 str0"/><polyline points="1588 3216 1840 3077 1812 2738" class="fil11 str0"/></g><g><g><path d="M6627 5186c-12,93 -32,180 -55,258 -24,81 -53,152 -80,211 -21,45 -41,84 -58,114 -31,3 -62,5 -93,7 -22,1 -44,2 -67,3 -24,1 -48,1 -72,1 -9,0 -18,0 -27,0 -4,0 -8,0 -12,0 -9,0 -17,0 -26,0 -1,-3 -2,-6 -2,-10 0,0 1,-23 7,-64 6,-39 16,-93 34,-159 5,-19 11,-39 18,-60 6,-18 12,-36 19,-55 13,-37 29,-75 47,-115 33,-73 74,-150 127,-229 63,-94 140,-191 237,-285 20,136 18,265 3,383z" class="fil8"/><g><path d="M6274 5779c8,-29 20,-65 33,-106 1,-2 2,-5 2,-7 19,-57 42,-122 66,-192 27,-77 57,-158 86,-236 85,-230 163,-435 163,-435" class="fil11 str0"/><polyline points="6386 5088 6461 5238 6627 5186" class="fil11 str0"/><polyline points="6258 5314 6375 5474 6572 5444" class="fil11 str0"/><polyline points="6176 5547 6307 5673 6492 5655" class="fil11 str0"/></g></g><g><path d="M6341 5776c-22,1 -44,2 -67,3 -24,1 -48,1 -72,1 -9,0 -18,0 -27,0 -4,0 -8,0 -12,0 -9,0 -17,0 -26,0 -50,-1 -98,-2 -145,-4 -29,-58 -59,-127 -85,-206 -25,-76 -47,-160 -63,-254 -18,-112 -27,-236 -20,-370 107,86 194,182 263,279 50,70 91,140 125,207 3,6 7,13 10,19 37,76 65,147 85,209 1,2 1,4 2,5 1,2 2,5 2,7 12,39 22,74 29,103z" class="fil6"/><g><path d="M6175 5780c-11,-23 -22,-48 -33,-74 -14,-32 -28,-65 -43,-99 -32,-75 -66,-154 -98,-231 -94,-226 -176,-430 -176,-430" class="fil11 str0"/><polyline points="5844 5316 6000 5376 6087 5225" class="fil11 str0"/><polyline points="5903 5570 6099 5607 6222 5451" class="fil11 str0"/><polyline points="6307 5661 6301 5668 6201 5780" class="fil11 str0"/></g></g></g></g><path d="M8264 1758c0,0 89,-242 372,-242 283,0 361,322 361,322 0,0 19,-78 177,-80 158,-2 205,182 205,182 0,0 149,-76 225,160l-1741 0c0,0 78,-374 400,-342z" class="fil10"/><path d="M2574 1175c0,0 -89,-242 -372,-242 -283,0 -361,322 -361,322 0,0 -19,-78 -177,-80 -158,-2 -205,182 -205,182 0,0 -149,-76 -225,160l1741 0c0,0 -78,-374 -400,-342z" class="fil10"/></g></g></svg>